<svg width="16" height="12" viewBox="0 0 16 12" fill="none" xmlns="http://www.w3.org/2000/svg">
<path opacity="0.4" d="M3.55556 3.33317H12.4444V8.6665H3.55556V3.33317ZM14.6667 5.99984C14.6667 6.73623 15.2636 7.33317 16 7.33317V9.99984C16 10.7362 15.4031 11.3332 14.6667 11.3332H1.33333C0.596944 11.3332 0 10.7362 0 9.99984V7.33317C0.736389 7.33317 1.33333 6.73623 1.33333 5.99984C1.33333 5.26345 0.736389 4.6665 0 4.6665V1.99984C0 1.26345 0.596944 0.666504 1.33333 0.666504H14.6667C15.4031 0.666504 16 1.26345 16 1.99984V4.6665C15.2636 4.6665 14.6667 5.26345 14.6667 5.99984ZM13.3333 3.11095C13.3333 2.74275 13.0349 2.44428 12.6667 2.44428H3.33333C2.96514 2.44428 2.66667 2.74275 2.66667 3.11095V8.88873C2.66667 9.25692 2.96514 9.55539 3.33333 9.55539H12.6667C13.0349 9.55539 13.3333 9.25692 13.3333 8.88873V3.11095Z" fill="#1E1F23"/>
</svg>
